<svg xmlns="http://www.w3.org/2000/svg" viewBox="0 0 544.91 98.55"><title>logo_14</title><path d="M73.3,76H54.65a4,4,0,0,1-4-4V26a4,4,0,0,1,4-4h18.6A14.41,14.41,0,0,1,87.6,36.16v.11a11.5,11.5,0,0,1-4.33,8.85A13.52,13.52,0,0,1,87.65,55v6.65A14.37,14.37,0,0,1,73.3,76ZM54.65,24a2,2,0,0,0-2,2V72a2,2,0,0,0,2,2H73.3A12.36,12.36,0,0,0,85.65,61.69V55a11.48,11.48,0,0,0-4.6-9.16,1,1,0,0,1-.39-.91,1,1,0,0,1,.46-.74c.19-.12,4.52-2.9,4.48-7.94v-.1A12.41,12.41,0,0,0,73.25,24Z"/><path d="M57.15,75.22a1,1,0,0,1-1-1V23.86a1,1,0,1,1,2,0V74.22A1,1,0,0,1,57.15,75.22Z"/><rect x="61.99" y="29.11" width="17" height="11"/><path d="M77.49,38.61h-14v-8h14Zm-13-1h12v-6h-12Z" fill="#fff"/><polygon points="77.99 67.96 70.74 63.7 63.49 67.96 63.49 52.61 77.99 52.61 77.99 67.96"/><path d="M128.74,74.72,116.05,52.38c5.11-1.45,11.37-5.78,11.37-15,0-11.87-11.14-15.55-15.19-15.55H96.09v53.9a1,1,0,1,0,2,0V53h14.14a11.53,11.53,0,0,0,1.77-.14L127,75.7a1,1,0,0,0,1.37.38A1,1,0,0,0,128.74,74.72ZM98.09,51V23.86h14.14c2.17,0,13.19,2.35,13.19,13.55S115,51,112.23,51Z"/><path d="M185.78,70.86V25.79h14.73q7.34,0,11,3t3.7,9a9.16,9.16,0,0,1-1.8,5.59,11.63,11.63,0,0,1-4.89,3.76A10.45,10.45,0,0,1,214.33,51a11.13,11.13,0,0,1,2.13,6.83c0,4-1.31,7.22-3.94,9.54s-6.32,3.46-11.11,3.46ZM191.72,45h9a9.43,9.43,0,0,0,6.24-1.95,6.57,6.57,0,0,0,2.33-5.31q0-3.72-2.16-5.41t-6.6-1.69h-8.79Zm0,4.77V66h9.81a9.42,9.42,0,0,0,6.55-2.15,7.55,7.55,0,0,0,2.4-5.93q0-8.14-8.85-8.14Z"/><path d="M222.83,53.81A19.78,19.78,0,0,1,224.77,45a14.48,14.48,0,0,1,5.38-6.07A14.72,14.72,0,0,1,238,36.75a14.16,14.16,0,0,1,11.07,4.73q4.23,4.74,4.23,12.6v.41a19.91,19.91,0,0,1-1.88,8.77,14.2,14.2,0,0,1-5.35,6.05,14.78,14.78,0,0,1-8,2.17,14.12,14.12,0,0,1-11-4.73q-4.23-4.74-4.23-12.54Zm5.76.68a14.28,14.28,0,0,0,2.59,8.94,8.75,8.75,0,0,0,13.85,0q2.57-3.42,2.57-9.58A14.28,14.28,0,0,0,245,44.87a8.69,8.69,0,0,0-13.79,0Q228.6,48.21,228.59,54.49Z"/><path d="M259,53.81A19.78,19.78,0,0,1,260.93,45a14.48,14.48,0,0,1,5.38-6.07,14.7,14.7,0,0,1,7.88-2.13,14.16,14.16,0,0,1,11.07,4.73q4.23,4.74,4.22,12.6v.41a19.91,19.91,0,0,1-1.87,8.77,14.2,14.2,0,0,1-5.35,6.05,14.82,14.82,0,0,1-8,2.17,14.09,14.09,0,0,1-11-4.73Q259,62,259,54.21Zm5.76.68a14.34,14.34,0,0,0,2.58,8.94,8.76,8.76,0,0,0,13.86,0q2.56-3.42,2.57-9.58a14.28,14.28,0,0,0-2.62-8.94,8.31,8.31,0,0,0-6.95-3.42,8.22,8.22,0,0,0-6.84,3.38Q264.76,48.21,264.75,54.49Z"/><path d="M306,55.35l-3.59,3.75V70.86H296.7V23.31h5.73V52.07l3.06-3.68,10.43-11h7l-13,14,14.55,19.5h-6.72Z"/><path d="M361.93,52.63H351.34V70.86h-6V25.79h14.93q7.6,0,11.71,3.47t4.11,10.09a12.15,12.15,0,0,1-2.28,7.34,13.62,13.62,0,0,1-6.33,4.67l10.59,19.13v.37h-6.38Zm-10.59-4.86h9.13a10.29,10.29,0,0,0,7-2.3,7.73,7.73,0,0,0,2.62-6.14,8.18,8.18,0,0,0-2.49-6.42q-2.49-2.23-7.2-2.26h-9.1Z"/><path d="M397.44,71.48A14.65,14.65,0,0,1,386.35,67q-4.28-4.47-4.27-12V54a20.09,20.09,0,0,1,1.9-8.9A14.91,14.91,0,0,1,389.31,39a13.42,13.42,0,0,1,7.41-2.21q6.54,0,10.16,4.3t3.62,12.32v2.39H387.81a11.87,11.87,0,0,0,2.89,8,9.12,9.12,0,0,0,7,3.05,10,10,0,0,0,5.14-1.24,12.91,12.91,0,0,0,3.69-3.28l3.5,2.72Q405.86,71.49,397.44,71.48Zm-.72-30A7.62,7.62,0,0,0,390.9,44,12.24,12.24,0,0,0,388,51.05h16.78v-.43a10.92,10.92,0,0,0-2.35-6.77A7.19,7.19,0,0,0,396.72,41.45Z"/><path d="M445.42,54.49q0,7.63-3.5,12.32a11.22,11.22,0,0,1-9.47,4.67q-6.1,0-9.6-3.87V83.74h-5.73V37.37h5.24l.27,3.71a11.82,11.82,0,0,1,9.73-4.33,11.42,11.42,0,0,1,9.55,4.55q3.51,4.55,3.51,12.66Zm-5.73-.65q0-5.67-2.41-9a7.78,7.78,0,0,0-6.63-3.28,8.41,8.41,0,0,0-7.8,4.61v16a8.44,8.44,0,0,0,7.86,4.58,7.74,7.74,0,0,0,6.55-3.27Q439.69,60.27,439.69,53.84Z"/><path d="M451.18,53.81A19.78,19.78,0,0,1,453.11,45a14.5,14.5,0,0,1,5.39-6.07,14.7,14.7,0,0,1,7.88-2.13,14.16,14.16,0,0,1,11.07,4.73q4.21,4.74,4.22,12.6v.41a19.91,19.91,0,0,1-1.87,8.77,14.22,14.22,0,0,1-5.36,6.05,14.78,14.78,0,0,1-8,2.17,14.12,14.12,0,0,1-11-4.73q-4.22-4.74-4.22-12.54Zm5.76.68a14.34,14.34,0,0,0,2.58,8.94,8.75,8.75,0,0,0,13.85,0q2.58-3.42,2.57-9.58a14.34,14.34,0,0,0-2.61-8.94,8.32,8.32,0,0,0-6.95-3.42,8.22,8.22,0,0,0-6.84,3.38Q456.93,48.21,456.94,54.49Z"/><path d="M505,42.51a16.43,16.43,0,0,0-2.81-.22q-5.64,0-7.65,4.8V70.86h-5.73V37.37h5.58l.09,3.87a8.91,8.91,0,0,1,8-4.49,5.79,5.79,0,0,1,2.53.43Z"/><path d="M519.63,29.26v8.11h6.25v4.42h-6.25v20.8a4.61,4.61,0,0,0,.83,3,3.5,3.5,0,0,0,2.85,1,13.58,13.58,0,0,0,2.72-.37v4.62a16.64,16.64,0,0,1-4.39.61,7.13,7.13,0,0,1-5.79-2.32,10,10,0,0,1-2-6.59V41.79h-6.1V37.37h6.1V29.26Z"/><path d="M43.54,10.63S27.31,22.58,27.31,49.28,43.54,87.92,43.54,87.92" fill="none" stroke="#5a83d5" stroke-linecap="round" stroke-linejoin="round" stroke-width="6"/><path d="M134.31,10.63s16.23,11.95,16.23,38.65-16.23,38.64-16.23,38.64" fill="none" stroke="#93da52" stroke-linecap="round" stroke-linejoin="round" stroke-width="6"/></svg>